<?xml version="1.0" encoding="UTF-8"?>
<svg width="25px" height="25px" viewBox="0 0 25 25" version="1.1" xmlns="http://www.w3.org/2000/svg" xmlns:xlink="http://www.w3.org/1999/xlink">
    <!-- Generator: Sketch 52 (66869) - http://www.bohemiancoding.com/sketch -->
    <title>Fill 33</title>
    <desc>Created with Sketch.</desc>
    <g id="Symbols" stroke="none" stroke-width="1" fill="none" fill-rule="evenodd">
        <g id="Footer---2" transform="translate(-1242.000000, -163.000000)" fill="#007BB5">
            <g id="Group-22" transform="translate(134.000000, 74.000000)">
                <g id="Group-24" transform="translate(1008.000000, 89.000000)">
                    <path d="M121.303906,21.3023438 L117.596094,21.3023438 L117.596094,15.5007813 C117.596094,14.1171875 117.572656,12.3375 115.669531,12.3375 C113.740625,12.3375 113.446094,13.8453125 113.446094,15.4015625 L113.446094,21.3023438 L109.742188,21.3023438 L109.742188,9.371875 L113.296875,9.371875 L113.296875,11.003125 L113.347656,11.003125 C113.842188,10.0648438 115.051563,9.07578125 116.855469,9.07578125 C120.610156,9.07578125 121.303906,11.5460938 121.303906,14.759375 L121.303906,21.3023438 Z M105.561719,7.7421875 C104.370312,7.7421875 103.410156,6.77890625 103.410156,5.59140625 C103.410156,4.4046875 104.370312,3.44140625 105.561719,3.44140625 C106.747656,3.44140625 107.710938,4.4046875 107.710938,5.59140625 C107.710938,6.77890625 106.747656,7.7421875 105.561719,7.7421875 L105.561719,7.7421875 Z M107.416406,21.3023438 L103.704688,21.3023438 L103.704688,9.371875 L107.416406,9.371875 L107.416406,21.3023438 Z M123.958594,0 L101.042187,0 C100.466406,0 100,0.46640625 100,1.04140625 L100,23.9578125 C100,24.5335938 100.466406,25 101.042187,25 L123.958594,25 C124.533594,25 125,24.5335938 125,23.9578125 L125,1.04140625 C125,0.46640625 124.533594,0 123.958594,0 L123.958594,0 Z" id="Fill-33"></path>
                </g>
            </g>
        </g>
    </g>
</svg>