<?xml version="1.0" encoding="UTF-8"?>
<svg width="25px" height="25px" viewBox="0 0 25 25" version="1.1" xmlns="http://www.w3.org/2000/svg" xmlns:xlink="http://www.w3.org/1999/xlink">
    <!-- Generator: Sketch 52 (66869) - http://www.bohemiancoding.com/sketch -->
    <title>Group 18</title>
    <desc>Created with Sketch.</desc>
    <g id="Symbols" stroke="none" stroke-width="1" fill="none" fill-rule="evenodd">
        <g id="Footer---2" transform="translate(-1175.000000, -163.000000)">
            <g id="Group-22" transform="translate(134.000000, 74.000000)">
                <g id="Group-24" transform="translate(1008.000000, 89.000000)">
                    <g id="Group-18" transform="translate(33.000000, 0.000000)">
                        <path d="M1.0421875,0 C0.46640625,0 0,0.46640625 0,1.04140625 L0,23.9578125 C0,24.5335938 0.46640625,25 1.0421875,25 L23.9585937,25 C24.5335938,25 25,24.5335938 25,23.9578125 L25,1.04140625 C25,0.46640625 24.5335938,0 23.9585937,0 L1.0421875,0 Z" id="Fill-33-Copy" fill="#1DA1F2"></path>
                        <path d="M21,7.5387041 C20.4115,7.79965391 19.7785,7.97611998 19.1145,8.05560469 C19.7925,7.64918285 20.313,7.00630648 20.558,6.23995386 C19.924,6.61588156 19.221,6.88882907 18.4735,7.03630071 C17.8745,6.39842338 17.0215,6 16.0775,6 C14.2645,6 12.795,7.46921746 12.795,9.28186887 C12.795,9.53881946 12.824,9.78927129 12.88,10.0297251 C10.1515,9.89275139 7.733,8.58600269 6.114,6.60038454 C5.8315,7.08529129 5.6695,7.64918285 5.6695,8.2505672 C5.6695,9.3888483 6.249,10.3936551 7.1295,10.9820419 C6.5915,10.9650452 6.0855,10.8175735 5.643,10.5716208 C5.6425,10.5856182 5.6425,10.5991156 5.6425,10.6131129 C5.6425,12.2033071 6.774,13.529552 8.276,13.830994 C8.0005,13.9059796 7.7105,13.9459719 7.411,13.9459719 C7.1995,13.9459719 6.994,13.9254759 6.7935,13.8874832 C7.211,15.1912325 8.4235,16.14005 9.86,16.1665449 C8.7365,17.0468756 7.321,17.5712748 5.783,17.5712748 C5.518,17.5712748 5.257,17.5557777 5,17.5257835 C6.4525,18.4566045 8.178,19 10.032,19 C16.07,19 19.3715,13.9989617 19.3715,9.66229571 C19.3715,9.51982311 19.3685,9.37835032 19.362,9.23737743 C20.0035,8.77496635 20.56,8.19707749 21,7.5387041" id="Fill-1" fill="#FFFFFF"></path>
                    </g>
                </g>
            </g>
        </g>
    </g>
</svg>